#!OML:ASF F:\VICON\USERDATA\INSTALL\rory3\rory3.ASF
:FULLY-SPECIFIED
:DEGREES
203
root 0.8717072457783659 17.900040264539612 40.13427354375056 2.0429446409137473 0.6436484841450598 0.15021613191427474
lfemur -10.981654742481977 2.3918984079780046 -21.699827109941914
ltibia 50.904759211670275
lfoot 3.9696793514050395 -9.51911770377484
ltoes -5.231022009838299
rfemur -21.63662284361518 4.363038592669489 25.978663365937948
rtibia 49.81436228875577
rfoot -4.310841810548478 -5.9910687217027405
rtoes 0.8321868912791354
lowerback 12.770767492254965 0.43676208515512094 0.5316151047981598
upperback -0.6977553403212049 1.033726127517455 1.264231641659677
thorax -8.343682942272682 0.6586334766429889 0.998368205502703
lowerneck -19.82783285477156 -3.8691030498382815 -1.8944196220331748
upperneck 10.282785515341015 -5.038998707832971 3.024604958592676
head 6.3563852028580925 -2.2589391840379474 0.8053098737015488
lclavicle 4.287488207731266e-15 5.75886165290891e-17
lhumerus -48.91588915152778 -12.365651289511433 96.07377466583024
lradius 109.62087834163741
lwrist 28.84080894580092
lhand -29.486881275270793 2.807609480519706
lfingers 7.125019999999998
lthumb -2.854776165561553 32.6051971629651
rclavicle 4.28752700038245e-15 5.761646213958064e-17
rhumerus -43.31249419624913 14.80192727928199 -99.42815321885861
rradius 105.51356926131572
rwrist -9.797705776676294
rhand -20.467340561331238 36.35690381911457
rfingers 7.125019999999998
rthumb 6.028827562154616 6.256482468952477
204
root 0.9204670109757656 17.991362040070328 42.723012033861934 2.268093133738761 1.0807113613536956 0.3700553081939262
lfemur -12.572912382310328 2.038882405669251 -22.060026119919744
ltibia 51.76852707550917
lfoot 2.5742018109491704 -9.899200761747846
ltoes -5.40360196815806
rfemur -19.63653986810508 4.925745768708834 27.14833028153963
rtibia 50.63120120806229
rfoot -5.562358756998238 -5.863913511803021
rtoes 1.3195842970286509
lowerback 12.761237997443482 0.36666802691308353 0.2944231908576447
upperback -0.7128661963635794 0.845171118755812 1.2585341104057068
thorax -8.411123658676482 0.5569976295332357 0.9300349675384756
lowerneck -19.86909118850973 -3.8593800835256413 -1.8479530336988468
upperneck 10.170399383435432 -5.063782583483203 2.993639516610163
head 6.382302996116677 -2.236436813907599 0.8224328261863071
lclavicle 4.287488207731266e-15 5.75886165290891e-17
lhumerus -46.10411331718366 -11.814013728520445 96.57545440949536
lradius 109.63705876244819
lwrist 28.800795623102946
lhand -29.52826359745724 2.797371248050774
lfingers 7.125019999999998
lthumb -2.901029276095834 32.604230505272824
rclavicle 4.28752700038245e-15 5.761646213958064e-17
rhumerus -43.72787747580006 14.758425457227245 -99.5088275614814
rradius 105.5295904638658
rwrist -9.632101514927877
rhand -20.43897264556066 36.365678209832204
rfingers 7.125019999999998
rthumb 6.052168569355388 6.239776353163517
205
root 0.916132860816617 17.995187260715326 41.76199784819684 2.2572905616009047 0.8551517248036495 0.3095111592574171
lfemur -11.770528263240937 2.0592222213360842 -22.098945238108602
ltibia 52.981706548576796
lfoot 1.5470808079750007 -9.958491873127302
ltoes -5.576791685156342
rfemur -20.67302904071438 4.735128577604178 26.9659875422125
rtibia 51.39296010798196
rfoot -5.271209588142817 -5.4964123501602655
rtoes 2.1478577711519096
lowerback 12.750584574686988 0.3163800574367879 0.11342182172625992
upperback -0.7105873127996657 0.7586236917854072 1.304220090960632
thorax -8.3659675023814 0.562721435852032 0.9954361222128865
lowerneck -19.861211904042065 -3.8380347107845756 -1.8233742870058998
upperneck 10.11558054606725 -5.0334447529991255 3.028627665464316
head 6.3516740306221235 -2.2529071693210496 0.8026801966445947
lclavicle 4.287488207731266e-15 5.75886165290891e-17
lhumerus -48.565181289280275 -12.71929404085339 96.17542853333012
lradius 109.69670587686846
lwrist 28.653284454677674
lhand -29.446491839974506 2.899515960161998
lfingers 7.125019999999998
lthumb -3.074225629199784 32.52098798143208
rclavicle 4.28752700038245e-15 5.761646213958064e-17
rhumerus -44.29973024124717 14.665287933125 -99.60889478323533
rradius 105.42616477411833
rwrist -9.626333730064406
rhand -20.482039283136054 36.28807518205072
rfingers 7.125019999999998
rthumb 6.039938672785807 6.265112684192136
206
root 0.959163837494122 18.070631784766423 44.2448813483624 2.450637137980087 1.293644179504522 0.42648020230143713
lfemur -12.936004013225421 1.9523795927285135 -22.11262269839493
ltibia 53.834796373102336
lfoot 0.7660782890861845 -9.790107198043252
ltoes -5.561458412850575
rfemur -20.390117423117637 4.908704005586329 26.984443816447225
rtibia 51.48744122310662
rfoot -4.624382988144173 -5.1118408712783365
rtoes 2.739757937298993
lowerback 12.717414120228087 0.2543337961184774 -0.09746668900063216
upperback -0.7192056628901274 0.7479271091460973 1.368356205648797
thorax -8.333139590333614 0.5730784809933083 1.086633913783639
lowerneck -19.9101874066318 -3.823195495934383 -1.8001330762619632
upperneck 9.971242813873555 -5.126883441520632 2.9746475139229194
head 6.364988927100527 -2.256013264710983 0.7952844467519209
lclavicle 4.287488207731266e-15 5.75886165290891e-17
lhumerus -45.714405442056346 -12.190065161184892 96.71486092230863
lradius 109.67890112970662
lwrist 28.507486426184816
lhand -29.468966804166644 2.9046038745278815
lfingers 7.125019999999998
lthumb -3.1261820405591125 32.56443603708776
rclavicle 4.28752700038245e-15 5.761646213958064e-17
rhumerus -44.92759486174926 14.558108997965055 -99.68602528645458
rradius 105.43686473842709
rwrist -9.566114890248407
rhand -20.446340949376598 36.32989233259145
rfingers 7.125019999999998
rthumb 6.091972978005265 6.3488141799468725
